<?xml version="1.0" encoding="UTF-8"?>
<svg version="1.1" viewBox="0 0 526.1 106.94" xml:space="preserve" xmlns="http://www.w3.org/2000/svg">
<style type="text/css">
	.st0{fill:url(#SVGID_1_);}
	.st1{fill:url(#SVGID_2_);}
	.st2{fill:#FFFFFF;}
	.st3{fill:#37DDF0;}
</style>
<title>logo pokervip88</title>
<g transform="translate(-2.4,-2.457)">
	
		<linearGradient id="SVGID_1_" x1="-7.8677" x2="67.342" y1="110.81" y2="6.3042" gradientUnits="userSpaceOnUse">
			<stop stop-color="#45B9F4" offset="0"/>
			<stop stop-color="#4B12C9" offset=".9832"/>
		</linearGradient>
		<path class="st0" d="m2.4 109.4v-93.1s0.7-13.5 16.9-13.5h34.9s35.9 4.3 35.9 40.3c0 0 1.1 37.6-34.1 39.9l-9.8 0.2s1.3 12.3-12.5 16.5z" fill="url(#SVGID_1_)"/>
		<linearGradient id="SVGID_2_" x1="21.724" x2="106.82" y1="42.605" y2="42.605" gradientUnits="userSpaceOnUse">
			<stop stop-color="#45B9F4" offset="0"/>
			<stop stop-color="#477DE5" offset=".3707"/>
			<stop stop-color="#4B12C9" offset=".9832"/>
		</linearGradient>
		<path class="st1" d="m26.3 2.8s38.6 11.2 41 42.3c0.7 8.9 1.7 18-8 37.5 0 0 30.2-1.5 30.8-40.1 0 0 0.9-36.2-35.8-39.8-7-0.6-28 0.1-28 0.1z" fill="url(#SVGID_2_)"/>
		<path class="st2" d="m63.7 46.8-31.1 18.3c-0.6 0.3-1.3 0.5-1.9 0.5s-1.3-0.2-1.9-0.5c-1.2-0.7-1.9-2-1.9-3.4v-36.5c0-1.4 0.7-2.7 1.9-3.4s2.6-0.7 3.8 0l31.1 18.3c1.2 0.7 1.9 2 1.9 3.4s-0.7 2.6-1.9 3.3z"/>
	
	
		<path class="st3" d="m105.9 19.2c0-4.5 3.6-7.9 9.1-7.9s9.1 3.2 9.1 7.7c0 4.7-3.6 8.2-9.1 8.2s-9.1-3.5-9.1-8z"/>
		<rect class="st2" x="107.6" y="31.9" width="14.9" height="42.6"/>
		<path class="st2" d="m130.1 47c0-16.8 12.8-28.6 30.3-28.6 10.2 0 18.3 3.7 23.7 10.4l-9.9 9c-3.5-4.2-7.7-6.5-13-6.5-9 0-15.3 6.3-15.3 15.7s6.3 15.7 15.3 15.7c5.3 0 9.5-2.3 13-6.5l9.9 9c-5.4 6.7-13.5 10.4-23.7 10.4-17.5 0.1-30.3-11.8-30.3-28.6z"/>
		<path class="st2" d="m187 47c0-16.5 13-28.6 30.6-28.6s30.6 12.1 30.6 28.6-13 28.6-30.6 28.6-30.6-12.1-30.6-28.6zm45.4 0c0-9.5-6.5-15.7-14.9-15.7-8.3 0-14.9 6.2-14.9 15.7s6.5 15.7 14.9 15.7c8.4 0.1 14.9-6.2 14.9-15.7z"/>
		<path class="st2" d="m308.8 19.5v55.1h-12.8l-24.3-29.3v29.3h-15.3v-55.1h12.8l24.3 29.3v-29.3z"/>
		<path class="st2" d="m369.4 39.9c0 12.5-9.4 20.3-24.5 20.3h-9.6v14.4h-15.6v-55.1h25.3c15 0 24.4 7.8 24.4 20.4zm-15.7 0c0-5.1-3.2-8.1-9.7-8.1h-8.7v16.1h8.7c6.5 0 9.7-3 9.7-8z"/>
		<path class="st2" d="m377 19.5h15.6v42.7h26.3v12.4h-41.9z"/>
		<path class="st2" d="m507.4 54.8v19.7h-15.6v-20l-21-35.1h16.4l13.1 21.9 13.1-21.9h15.1z"/>
		<path class="st3" d="m475.5 50.1-41 24.1c-0.8 0.5-1.6 0.7-2.5 0.7-0.8 0-1.7-0.2-2.5-0.7-1.6-0.9-2.6-2.6-2.6-4.4v-48.2c0-1.8 1-3.5 2.6-4.4 1.5-0.9 3.4-0.9 5 0l41 24.1c1.6 0.9 2.5 2.6 2.5 4.4 0 1.9-0.9 3.5-2.5 4.4z"/>
	
</g>
</svg>
